<?xml version="1.0" encoding="UTF-8"?>
<svg id="Layer_1" data-name="Layer 1" xmlns="http://www.w3.org/2000/svg" viewBox="0 0 415.82 509.41">
  <defs>
    <style>
      .cls-1 {
        fill: rgba(244, 243, 239, .6);
      }
    </style>
  </defs>
  <path class="cls-1" d="M275.04,8c50.96-9.54,84.91-11.73,134.74,0,2.1.49,4.11,1.04,6.05,1.63v498.21c-3.1.15-6.34.36-9.76.64-53.94,4.43-80.5-7.48-131.02-20.4-51.02-13.04-75.16-11.18-112.64-36.94-33.88-23.28-21.07-31.57-51.24-56.87-31.69-26.57-48.59-15.52-83.73-63.33-6.17-7.64-16.27-16.99-27.43-27.21V99.84c30.51-12.48,69.34-19.15,100.26-31.97,44.18-18.33,124.27-50.41,174.78-59.87Z"/>
</svg>