<?xml version="1.0" encoding="UTF-8"?>
<svg id="Layer_1" data-name="Layer 1" xmlns="http://www.w3.org/2000/svg" viewBox="0 0 415.82 632.88">
  <defs>
    <style>
      .cls-1 {
        fill: rgba(244, 243, 239, .6);
      }
    </style>
  </defs>
  <path class="cls-1" d="M275.04,9.94c50.96-11.85,84.91-14.58,134.74,0,2.1.61,4.11,1.29,6.05,2.02v618.96c-3.1.18-6.34.44-9.76.79-53.94,5.5-80.5-9.3-131.02-25.34-51.02-16.2-75.16-13.89-112.64-45.89-33.88-28.92-21.07-39.22-51.24-70.65-31.69-33.01-48.59-19.28-83.73-78.68-6.17-9.49-16.27-21.11-27.43-33.81V124.03c30.51-15.51,69.34-23.79,100.26-39.72,44.18-22.77,124.27-62.63,174.78-74.38Z"/>
</svg>