<?xml version="1.0" encoding="UTF-8"?>
<svg id="Layer_1" data-name="Layer 1" xmlns="http://www.w3.org/2000/svg" viewBox="0 0 45.75 36.45">
  <defs>
    <style>
      .cls-1 {
        fill: #932c26;
      }
    </style>
  </defs>
  <path class="cls-1" d="M27.25,4.54V0h4.57v4.54h-4.57ZM9.06,4.54V0h4.54v4.54h-4.54ZM22.85,36.45c-2.2,0-4.36-.24-6.49-.73-2.13-.49-4.18-1.2-6.15-2.15-1.97-.93-3.82-2.07-5.54-3.42-1.74-1.33-3.3-2.87-4.66-4.61l2.2-1.76c1.24,1.55,2.64,2.92,4.22,4.13,1.56,1.22,3.23,2.25,5,3.1,1.79.86,3.65,1.51,5.57,1.93,1.94.44,3.89.66,5.86.66s3.93-.22,5.88-.66c1.95-.42,3.82-1.07,5.59-1.93,1.79-.85,3.47-1.88,5.03-3.1,1.56-1.2,2.96-2.58,4.2-4.13l2.2,1.76c-1.37,1.74-2.92,3.28-4.66,4.61-1.73,1.35-3.57,2.49-5.54,3.42-1.95.94-4.01,1.66-6.18,2.15-2.15.49-4.32.73-6.52.73Z"/>
</svg>