<?xml version="1.0" encoding="UTF-8"?>
<svg id="Layer_1" data-name="Layer 1" xmlns="http://www.w3.org/2000/svg" viewBox="0 0 305.7 343.01">
  <defs>
    <style>
      .cls-1 {
        fill: #932c26;
      }
    </style>
  </defs>
  <path class="cls-1" d="M171.83.15c-.55.14-3.71.62-7,1.03-6.59.89-8.44,1.99-6.52,3.98.96.96,2.88,1.17,12.01,1.24,9.47.07,11.6.27,17.29,1.92,3.57.96,9.74,3.43,13.73,5.35,6.11,3.02,8.24,4.53,13.59,9.74,13.11,12.63,20.66,25.6,28.55,48.45,3.5,10.23,5.28,19.01,9.4,46.32.75,4.87,1.65,10.64,1.99,12.76,1.1,5.9.89,28.07-.28,35.69-1.03,6.66-8.16,40.04-11.59,47.86-1.51,3.23-1.72,4.39-1.17,5.63,1.44,3.16,3.78,1.72,7.21-4.6,5.63-10.5,12.97-49.23,12.97-68.18.07-6.59-.28-14.21-.76-16.81-.41-2.68-1.58-10.09-2.61-16.47-5.01-33.01-8.92-47.28-18.53-67.25-6.24-13.04-17.77-27.11-28-34.24-8.58-5.9-12.9-7.82-23.33-10.36-6.38-1.58-14.76-2.61-16.95-2.06Z"/>
  <path class="cls-1" d="M130.1,8.38c-8.3,2.75-14.34,5.9-21.27,11.19-8.58,6.52-18.67,19.35-23.13,29.3-2.47,5.49-7.34,19.42-9.61,27.31-1.99,6.79-5.97,19.83-9.61,31.36-3.36,10.64-7.07,24.36-7.96,29.78-1.17,7.07-2.53,13.67,0,28.67.44,2.6,0,7.5,11.97,35,2.35,5.4,8.5,8.1,13.18,8.1,2.13,0,3.16-1.65,2.06-3.36-.41-.62-2.33-2.2-4.32-3.64-8.58-5.9-8.12-9.6-14.41-29.1-1.37-4.26-5.5-14.67-3.5-26.5,1.55-9.17,1.14-11.57,3.54-20.42,1.37-5.08,3.57-12.7,4.87-16.81,1.37-4.19,3.09-9.54,3.77-12.01,13.52-44.4,17.5-53.05,30.88-66.77,7.07-7.27,13.86-11.87,22.17-14.82,8.51-3.02,11.19-3.57,16.95-3.57,6.45,0,7.89-.41,7.48-2.4-.34-1.85-6.04-3.57-11.53-3.64-3.23,0-6.45.69-11.53,2.33Z"/>
  <path class="cls-1" d="M163.8,29.11c-1.51.55-1.03,2.95,1.37,7,8.24,13.86,8.72,33.7,1.1,44.33-2.13,2.95-5.21,5.56-5.83,4.94-.21-.14,0-1.65.34-3.29,1.99-9.4,1.44-21.82-1.58-33.7-2.26-8.85-3.02-10.43-5.42-10.71-2.33-.27-2.75.75-3.84,9.13-2.81,21.21-9.81,38.57-18.05,44.74-2.61,1.99-8.37,5.01-9.47,5.01-.41,0,.07-1.3,1.03-2.95,7.82-12.63,14.76-31.64,14.76-40.28,0-2.2-.34-2.95-1.78-3.91-2.68-1.72-3.98-.55-4.53,4.32-1.03,8.37-4.19,17.84-9.13,27.79-4.6,9.2-7.27,13.38-12.7,19.83-3.57,4.32-12.28,11.67-13.79,11.67-.21,0-1.24,1.51-2.26,3.43-2.47,4.6-2.88,8.78-1.44,15.44,2.33,10.57,5.76,16.81,10.77,19.7,4.39,2.54,6.11,2.75,10.91,1.24,2.33-.69,4.53-1.17,4.87-.96.34.21,1.17,1.51,1.92,2.88.69,1.37,3.16,5.01,5.42,8.03l4.19,5.49v4.87c0,5.35-1.92,17.5-3.77,23.88-1.17,3.91-1.24,4.05-5.42,5.9-2.26,1.03-6.66,2.54-9.68,3.36-18.6,5.01-16.95,4.67-43.24,9.68-24.36,4.6-34.24,9.4-43.58,21.07-9.26,11.53-13.93,22.78-19.83,48.25-1.1,4.73-2.33,10.84-2.81,13.66-.41,2.81-.89,5.28-1.03,5.56-.14.27-.62,3.23-.96,6.52-.75,6.52-.27,8.58,1.99,8.58s3.23-2.68,5.15-14.41c2.26-14.21,7.27-35,10.09-42.21,6.59-17.02,15.3-27.66,27.31-33.42,7.69-3.71,10.5-4.53,25.05-7.41,19.08-3.77,23.95-4.8,30.95-6.86,3.71-1.1,6.79-1.92,6.79-1.85.55,1.58,10.43,13.79,13.24,16.33,22.58,20.59,54.9,26.35,79.4,14.14,6.38-3.16,9.61-5.63,16.54-12.63l6.45-6.45,4.94,1.85c7.96,2.95,16.2,5.7,22.78,7.55,6.59,1.85,14.07,5.28,17.91,8.24,3.71,2.81,9.68,11.26,13.72,19.35,4.94,9.81,8.99,22.78,14.41,45.77,3.5,15.03,3.84,16.06,5.35,17.16,5.56,3.91,4.12-7.69-5.01-39.8-3.36-11.67-7.76-23.54-10.98-29.58-8.44-15.58-15.99-22.03-31.57-26.7-22.44-6.79-42.89-14.27-48.93-17.84-5.42-3.16-5.35-2.74-3.84-14.07.75-5.49,1.58-12.08,1.85-14.62.55-4.46.75-4.8,4.39-8.58,6.31-6.52,11.87-17.36,14.69-28.48.76-3.02,1.58-4.87,2.26-5.08,5.97-1.85,9.81-5.29,14.21-12.76,4.05-6.93,6.04-13.72,6.11-20.72,0-5.9-.07-6.31-2.26-9.33-3.36-4.67-4.74-5.22-9.47-3.91l-3.84,1.1-4.46-4.25c-5.49-5.22-15.99-16.68-14.62-15.92.55.34,1.99,1.3,3.16,2.2,2.68,1.92,12.35,6.86,14.75,7.48,2.26.55,3.98-1.24,2.88-2.95-.34-.69-4.74-3.64-9.68-6.66-11.94-7.27-19.49-13.93-26.28-23.13-3.02-4.05-6.11-8.44-6.86-9.74-1.51-2.54-3.16-3.43-4.94-2.75-2.06.75-1.85,2.47,1.17,8.03,10.77,20.04,20.31,32.8,33.49,44.74l5.28,4.8-.34,3.09c-.21,1.72-.62,6.04-.96,9.61-1.17,11.39-2.06,18.12-2.68,20.93-.34,1.51-1.17,5.35-1.79,8.58-3.71,18.67-11.87,31.98-23.88,39.05-12.28,7.21-28.48,6.93-43.24-.76-9.26-4.8-20.52-16.61-26.83-28.07-1.3-2.4-3.36-5.49-4.46-6.79-1.71-1.99-2.2-2.26-3.29-1.65-.82.55-1.24,1.58-1.24,3.36,0,2.88-1.03,3.64-4.87,3.71-4.94.14-8.78-4.87-11.25-14.69-1.72-7-1.72-10.36,0-13.25,2.75-4.46,6.73-4.32,10.23.27,1.3,1.72,2.68,2.95,3.09,2.81,1.17-.41,1.24-4.53.14-9.2l-.96-4.26,3.36-3.16c3.02-2.81,3.57-3.09,6.79-3.09,4.74,0,10.57-3.02,16.54-8.65,3.16-2.95,5.21-4.39,6.38-4.39,2.06,0,2.68-1.85,1.24-3.57-.69-.82-.82-1.44-.27-2.06,2.13-2.75,5.83-13.73,7.75-23.06.69-3.71.96-4.19,1.58-3.09,1.1,1.85.82,17.36-.55,24.77-1.37,7.96-1.37,9.06.14,10.16,1.85,1.44,4.12,1.1,8.51-1.24,9.88-5.22,14.96-15.85,14.96-31.09,0-12.15-3.5-22.85-9.68-29.3-2.47-2.61-2.95-2.81-4.53-2.13ZM237.85,99.8c2.47,2.81,2.74,4.25,1.92,9.33-1.17,7.34-2.47,10.71-7.07,17.98-2.2,3.64-6.18,7.21-7,6.38-.21-.14.14-3.5.69-7.48.55-3.91,1.3-9.61,1.72-12.63.41-3.02.89-6.45,1.1-7.55.41-2.81,4.05-7.21,6.04-7.21.89,0,2.06.55,2.61,1.17ZM138.96,175.97c.96,1.17,8.51,6.04,11.6,7.55,3.77,1.85,8.85,3.5,14,4.67,9.2,2.06,20.73.55,29.44-3.91l4.12-2.06-.41,3.02c-.21,1.58-.69,6.18-1.1,10.16-.48,3.98-1.1,9.26-1.44,11.8-1.03,7.07-.89,12.15.34,12.7,1.37.48,3.5-1.44,4.05-3.64.55-2.06.96-2.06,4.12.07,1.37.96,2.74,1.71,3.09,1.71.27,0,1.1.41,1.78.96,1.24.89,1.24.96-.27,3.36-2.26,3.64-8.92,9.54-13.11,11.53-6.59,3.23-13.38,4.74-22.78,5.22-9.13.41-13.52-.07-21.27-2.61-7.14-2.33-15.1-6.59-20.45-10.98-4.32-3.5-8.24-7.89-8.24-9.13,0-.21,1.44-2.26,3.29-4.6,5.42-7,6.31-8.44,6.31-10.02,0-.82.41-2.74.96-4.12,1.37-3.57,3.02-11.94,3.57-17.91.48-5.15.82-5.7,2.4-3.78Z"/>
  <path class="cls-1" d="M189.33,79.89c-3.43.75-7.34,2.61-7.89,3.71-1.65,3.02,1.51,4.8,5.63,3.02,3.36-1.37,9.47-1.3,12.49.07,3.64,1.78,5.83.21,4.94-3.5-.34-1.3-1.24-1.92-3.98-2.75-3.36-.96-8.24-1.24-11.19-.55Z"/>
  <path class="cls-1" d="M193.24,102.47c-1.92,1.3-1.99,4.32-.07,6.72,1.65,2.06,4.74,2.4,6.38.69,1.65-1.58,1.37-5.28-.48-7-1.85-1.78-3.71-1.92-5.83-.41Z"/>
  <path class="cls-1" d="M137.52,108.24c-1.92,1.92-1.72,4.39.55,6.93,1.65,1.78,2.26,2.13,3.84,1.72,4.8-1.17,3.09-10.02-1.92-10.02-.62,0-1.72.62-2.47,1.37Z"/>
  <path class="cls-1" d="M172.65,109.75c-1.51,1.51-.89,5.42,1.92,12.01,3.22,7.41,3.22,7.27-2.88,9.47-3.84,1.37-5.08,2.95-3.7,4.8,1.85,2.61,12.15-.55,15.1-4.6l1.3-1.85-2.75-7.07c-1.58-3.91-3.16-8.24-3.64-9.68-1.03-3.36-3.57-4.87-5.35-3.09Z"/>
  <path class="cls-1" d="M182.74,147.08c-4.12,2.2-10.36,3.23-17.91,2.81-6.31-.28-7.48-.14-8.44.89-1.65,1.85-1.24,2.74,1.92,4.12,4.19,1.85,8.99,2.26,15.51,1.37,9.26-1.24,17.29-5.83,15.44-8.78-.96-1.44-4.19-1.72-6.52-.41Z"/>
  <path class="cls-1" d="M84.73,148.06c-1.03,1.71-1.88,13.46-1.34,17.15,1.37,8.62,8.6,20.22,16.03,25.55,4.2,2.94,6.4,4.66,8.01,3.24s1.07-4,0-5.61c-6.77-3.83-14.05-12.39-16.3-18.92-1.08-3.36-1.9-10.57-1.75-15.13.33-6.13.19-6.57-2.12-6.93-1.15-.18-2.23.07-2.53.65Z"/>
  <path class="cls-1" d="M239.87,159.12c-.99.97-1.62,3.7-1.24,5.51.4,1.95-1.57,12.1-3.4,17.8-.74,2.18-2.31,5.1-3.49,6.54-2.54,2.98-2.51,5.14-.11,5.56,2.46.4,4.77-1.34,7.33-5.58,4.72-7.7,7.33-25.27,4.39-29.29-1.17-1.58-2.26-1.78-3.48-.54Z"/>
  <path class="cls-1" d="M225.85,167.9c-.51.6-1.97,3.7-3.22,6.83-1.31,3.14-3.87,7.74-5.68,10.14-2.36,3.15-3.27,4.88-3.03,6.02.45,2.15,3.07,2.31,5.47.34,2.53-1.99,6.66-9.15,8.81-15.34,1.89-5.44,2.04-7.43.34-8.55-1.22-.8-1.55-.73-2.69.55Z"/>
  <path class="cls-1" d="M57.64,278.09c-.82.89-1.1,2.47-1.1,6.72.07,9.54,1.3,43.99,1.78,48.86.62,6.04,2.68,8.1,5.49,5.35.96-1.03,1.1-2.06.69-7.76-.27-3.57-.75-16.26-1.03-28.14-.55-22.44-.96-25.46-3.57-25.94-.62-.14-1.65.27-2.26.89Z"/>
  <path class="cls-1" d="M247.18,295.66c-1.58.89-1.58,3.77-.14,9.2.55,2.27,1.65,6.24,2.33,8.92,7.55,28.69,8.51,30.88,12.28,28.55,1.44-.89.62-7.34-1.85-15.51-1.17-3.77-3.36-11.8-4.94-17.77-3.43-13.59-4.39-15.3-7.69-13.38Z"/>
</svg>